<svg width="261" height="90" viewBox="0 0 261 90" xmlns="http://www.w3.org/2000/svg">
<path d="M46.5343 3.36896C46.0726 3.13812 45.5608 3.3238 45.3299 3.74032C44.8181 4.71387 44.1707 5.96844 43.3828 7.54419C39.3933 15.5233 31.8809 30.3173 24.509 43.0236C20.4241 50.0693 16.9464 55.4991 14.0709 59.2076C9.66485 64.9586 7.94859 65.0991 7.48691 65.0038C7.16072 64.9134 6.09684 64.2611 6.18717 59.1625C6.32768 50.1647 12.4952 25.1685 15.1398 14.4544C15.5563 12.8335 15.8825 11.4886 16.1134 10.51C17.1773 5.96844 16.9916 3.3238 15.4158 2.30508C14.5828 1.79321 13.007 1.56237 10.3624 3.64999C5.63013 7.31335 -1.78692 18.0726 0.391025 24.5161C1.03839 26.4682 2.94032 28.8318 8.13427 28.9222C8.64613 28.9222 9.06265 28.5508 9.06265 28.044C9.06265 27.5321 8.64613 27.1607 8.18445 27.1156C4.84226 27.0704 2.75465 26.0015 2.06212 23.9641C0.391025 18.8605 6.51336 8.8891 11.4765 5.04006C13.0974 3.78548 14.1161 3.60482 14.4874 3.83566C14.5828 3.88083 15.6467 4.76405 14.3971 10.0935C14.1663 11.067 13.8401 12.4119 13.4236 14.0379C10.5481 25.6753 4.52109 49.9338 4.38058 59.1625C4.38058 62.0831 4.61142 66.1178 7.07039 66.72C7.30123 66.7652 7.48691 66.8154 7.71775 66.8154C10.2219 66.8154 14.7685 63.3829 26.0847 43.9018C33.4566 31.1955 40.969 16.3563 45.0037 8.33206C45.7916 6.80148 46.444 5.50174 46.9057 4.57837C47.1365 4.11167 46.9508 3.60482 46.5343 3.36896Z" fill="currentColor"/>
<path d="M50.604 38.1055C50.1825 37.8295 49.6756 37.965 49.3946 38.3865C46.2883 43.3948 41.0943 48.122 39.5186 47.4747C39.3329 47.3793 37.8475 46.5011 39.8899 38.6625C39.9803 38.1507 39.7042 37.689 39.2375 37.5485C38.7307 37.4581 38.264 37.7341 38.1285 38.2008C36.4574 44.7397 36.6882 48.2174 38.7759 49.0956C39.1021 49.2361 39.4232 49.2813 39.7494 49.2813C43.2271 49.2813 48.5616 43.0686 50.9252 39.3099C51.156 38.8934 51.0205 38.3363 50.604 38.1055ZM39.6591 34.3518C42.0227 34.4873 41.9775 31.5215 40.0756 32.1688C39.1021 32.4499 37.8475 34.2565 39.6591 34.3518Z" fill="currentColor"/>
<path d="M64.0937 38.1056C63.6772 37.8747 63.1202 37.9651 62.8843 38.3866C59.7328 43.164 54.4937 51.1381 51.0612 50.3954C50.5042 50.2549 50.0425 49.8886 49.7163 49.2813C48.7879 47.6153 48.9284 44.2731 49.9923 41.3524C51.1515 38.2461 52.5466 37.4582 52.8226 37.5034C52.8678 37.5486 53.1488 38.1508 52.7775 39.591C52.637 40.1029 52.913 40.5646 53.3797 40.7051C53.8915 40.7954 54.3532 40.5194 54.4937 40.0527C55.3719 36.7155 53.8414 35.9728 53.3797 35.7871C51.6634 35.2753 49.5758 37.3177 48.3262 40.7502C47.2573 43.6257 46.7957 47.7056 48.1857 50.1646C48.7428 51.2335 49.621 51.8808 50.6899 52.1117C50.9659 52.207 51.2469 52.207 51.5229 52.207C55.5576 52.207 59.9185 46.1299 64.3698 39.3602C64.6508 38.9436 64.5103 38.3866 64.0937 38.1056Z" fill="currentColor"/>
<path d="M101.654 21.2742C101.052 20.4361 98.3618 19.9292 69.5618 20.5766C70.4901 16.8179 71.3232 13.4356 72.0659 10.6956C72.2014 10.1887 71.9254 9.72202 71.4637 9.58652C70.997 9.44601 70.4901 9.72202 70.3496 10.1887C69.5618 13.1094 68.6785 16.6322 67.705 20.6218C65.1557 20.6669 62.3705 20.7171 59.3595 20.8074C55.2295 20.9028 51.9826 20.9931 50.7331 20.9931C50.2212 20.9931 49.8047 21.4096 49.8047 21.8763C49.8047 22.3832 50.2212 22.7997 50.7331 22.7997C52.0278 22.7546 55.2746 22.7094 59.4047 22.5689C61.5826 22.5237 64.2725 22.4785 67.2885 22.3832C65.2912 30.824 63.0229 40.9359 60.9805 50.8119C59.495 58.0483 58.2906 64.3111 57.5028 68.9029C57.0862 71.3117 56.8052 73.2136 56.6697 74.5133C56.4841 76.2748 56.3887 77.2935 57.2719 77.6197C57.4074 77.6197 57.5028 77.6648 57.6433 77.6648C58.4312 77.6648 58.8477 76.5508 59.219 75.5321C59.4047 75.0704 59.1739 74.5585 58.7072 74.3728C58.6168 74.3728 58.5666 74.3277 58.4763 74.3277C58.938 70.7095 60.3331 62.5949 63.0229 49.7932C65.0152 40.1028 67.1931 30.4075 69.1452 22.338C81.8967 22.062 98.4521 21.8262 100.354 22.4785C100.68 22.7546 101.097 22.7546 101.468 22.5237C101.839 22.2477 101.93 21.6907 101.654 21.2742Z" fill="currentColor"/>
<path d="M85.4608 38.5722C85.0443 38.246 84.4872 38.3363 84.2112 38.7077C82.2641 41.2118 79.0624 43.2994 76.6035 42.8378C76.6537 42.5116 76.6988 42.1854 76.6988 41.8642C77.02 36.6201 75.3991 35.5562 74.4255 35.3705C73.3115 35.1397 72.1522 35.9727 71.5952 37.3628C71.3644 37.2725 71.0884 37.2725 70.8525 37.4581C69.0007 38.6174 67.4702 41.5832 68.3032 44.7849C68.8602 46.6868 70.16 47.8912 71.8762 47.8912C73.4971 47.8912 75.2134 46.6868 76.0966 44.554C79.3435 45.2465 83.2377 42.8378 85.6013 39.8218C85.9275 39.4052 85.8321 38.8482 85.4608 38.5722ZM71.9214 46.1298C71.8762 46.1298 71.8762 46.1298 71.8762 46.1298C70.717 46.0846 70.2051 44.9705 70.0646 44.3232C69.6029 42.7424 69.9743 40.5645 71.274 39.3601C71.3644 40.9358 72.2476 42.6521 74.4707 43.8565C73.8233 45.3419 72.7093 46.1298 71.9214 46.1298ZM74.9374 41.7689C74.8872 41.8642 74.8872 41.9545 74.8872 42.0499C73.1258 40.8907 72.8498 39.4052 73.171 38.246C73.4068 37.5033 73.8685 37.1319 74.0993 37.1319C74.3302 37.1771 75.1231 38.0603 74.9374 41.7689Z" fill="currentColor"/>
<path d="M103.86 38.151C103.398 37.9201 102.841 38.1058 102.656 38.5725C97.3211 49.7934 92.2676 55.5444 91.1536 55.3587C91.0582 55.3136 89.4373 53.7378 94.6764 37.6441C94.8169 37.2276 95.1431 36.2541 94.4004 35.7422C93.7029 35.1852 92.915 35.697 91.6153 36.5752C90.2252 37.4584 88.3233 38.708 86.8378 38.5223C91.5701 30.3626 91.1084 28.551 90.0395 27.8584C88.3684 26.8849 85.9596 29.7102 84.8456 31.3361C82.5723 34.859 82.6174 38.0606 85.0313 39.6816C87.4902 41.3978 90.6869 39.3102 92.5888 38.0606C92.639 38.0155 92.639 38.0155 92.6842 37.9653C90.8726 43.6711 89.7133 48.1725 89.2968 51.2789C88.79 54.7114 89.1563 56.518 90.456 57.0298C90.6869 57.075 90.8726 57.1202 91.1084 57.1202C94.8169 57.1202 101.26 45.7136 104.276 39.3604C104.462 38.8937 104.276 38.3366 103.86 38.151ZM85.1216 34.9543C85.774 32.4502 87.9519 30.1317 88.9255 29.5747C88.8351 30.3174 88.3233 32.4 85.3574 37.5488C85.0313 37.0419 84.8004 36.2541 85.1216 34.9543Z" fill="currentColor"/>
<path d="M124.678 38.4319C124.402 38.0154 123.845 37.92 123.428 38.2011C119.439 40.7955 115.359 43.671 111.46 47.2892C112.017 43.8567 112.574 40.1933 113.086 36.3443C113.176 35.9278 112.9 35.5112 112.483 35.3707C112.112 35.2302 111.645 35.4159 111.46 35.7873C110.531 37.363 108.494 40.6098 106.682 42.7928C106.035 43.5807 105.388 43.9972 105.061 43.7664C104.273 43.2997 103.716 40.103 105.523 35.6969C105.709 35.2302 105.478 34.7234 105.061 34.5377C104.6 34.352 104.088 34.5829 103.902 35.0445C102 39.6815 102.091 44.0875 104.178 45.2969C104.69 45.6683 106.175 46.1751 108.027 43.952C109.001 42.7928 109.929 41.4931 110.767 40.2385C110.3 43.4402 109.839 46.5013 109.327 49.422C105.433 53.4115 101.769 58.2341 98.6129 64.3565C93.3286 74.5135 92.355 85.7796 94.9997 89.0264C95.5065 89.6788 96.1589 90 96.8514 90C97.0823 90 97.2679 89.9548 97.5038 89.9097C100.515 89.0264 103.205 82.3521 104.966 76.8771C107.149 70.0623 109.141 61.1548 110.998 50.255C115.309 45.9443 119.9 42.6071 124.402 39.6815C124.818 39.4054 124.959 38.8484 124.678 38.4319ZM103.255 76.3201C99.9126 86.8937 97.5038 88.0529 97.0371 88.1934C96.8514 88.2386 96.6657 88.2386 96.3897 87.9174C94.7186 85.8749 94.5781 75.9939 100.194 65.1443C102.788 60.1812 105.664 56.1013 108.77 52.6237C107.104 62.2237 105.247 70.1526 103.255 76.3201Z" fill="currentColor"/>
<path d="M188.943 0.448434C186.298 -0.986801 176.513 1.28147 168.955 3.60495C167.655 4.02147 166.401 4.43799 165.151 4.85451C165.292 4.1118 165.427 3.41927 165.568 2.81206C165.658 2.30521 165.337 1.83851 164.87 1.74818C164.363 1.65283 163.897 1.97902 163.806 2.4407C163.621 3.36909 163.435 4.39282 163.204 5.55205C154.111 8.79889 145.67 12.8336 139.458 17.0038C139.041 17.2848 138.946 17.8419 139.227 18.2132C139.367 18.4892 139.688 18.6298 139.969 18.6298C140.105 18.6298 140.291 18.5846 140.431 18.4892C146.323 14.5449 154.206 10.6958 162.783 7.58948C161.809 12.1361 160.514 18.0276 159.119 24.5162C157.915 30.0815 156.615 36.0684 155.366 41.8645C150.819 43.3951 146.042 45.8039 141.636 49.4672C141.264 49.7934 141.219 50.3505 141.545 50.7218C141.731 50.9075 141.962 51.048 142.238 51.048C142.423 51.048 142.609 50.9527 142.795 50.8121C146.694 47.6155 150.914 45.3422 154.949 43.9019C153.925 48.6794 152.952 53.2711 152.164 57.4012C151.1 62.6854 150.403 66.6298 150.031 69.41C149.334 74.0469 149.57 75.0204 150.493 75.3015C150.588 75.3466 150.729 75.3466 150.819 75.3466C151.702 75.3466 152.35 74.1874 153.323 71.8238C153.509 71.3571 153.323 70.8502 152.862 70.6646C152.395 70.4789 151.888 70.6646 151.702 71.1262C151.607 71.2667 151.562 71.4073 151.517 71.5428C152.074 66.5345 154.392 55.0325 156.896 43.2094C160.976 41.9548 164.78 41.448 167.701 41.4931C168.162 41.5383 168.584 41.1218 168.584 40.6099C168.629 40.1482 168.213 39.7317 167.746 39.7317C164.92 39.6815 161.257 40.1031 157.313 41.2121C158.517 35.5565 159.772 29.8958 160.886 24.8876C162.416 17.887 163.761 11.579 164.735 6.89696C166.451 6.29476 168.213 5.68754 169.974 5.13051C180.688 1.88869 186.715 1.46715 187.97 1.93385C187.734 2.30521 186.715 3.41927 182.776 5.50187C182.354 5.73773 182.168 6.29476 182.404 6.71128C182.635 7.17296 183.192 7.31348 183.609 7.08263C189.129 4.15696 189.871 2.76689 189.871 1.79334C189.871 1.46715 189.731 0.864953 188.943 0.448434Z" fill="currentColor"/>
<path d="M186.377 38.1055C185.956 37.8295 185.449 37.965 185.168 38.3865C182.062 43.3948 176.868 48.122 175.292 47.4747C175.106 47.3793 173.621 46.5011 175.663 38.6625C175.754 38.1507 175.478 37.689 175.011 37.5485C174.504 37.4581 174.037 37.7341 173.902 38.2008C172.231 44.7397 172.462 48.2174 174.549 49.0956C174.875 49.2361 175.197 49.2813 175.523 49.2813C179.001 49.2813 184.335 43.0686 186.699 39.3099C186.929 38.8934 186.794 38.3363 186.377 38.1055ZM175.433 34.3518C177.796 34.4873 177.751 31.5215 175.849 32.1688C174.875 32.4499 173.621 34.2565 175.433 34.3518Z" fill="currentColor"/>
<path d="M223.708 21.2744C223.106 20.4363 220.416 19.9295 191.616 20.5769C192.545 16.8181 193.378 13.4358 194.121 10.6958C194.256 10.189 193.98 9.72226 193.518 9.58677C193.052 9.44625 192.545 9.72226 192.404 10.189C191.616 13.1096 190.733 16.6325 189.76 20.622C187.21 20.6672 184.425 20.7174 181.414 20.8077C177.284 20.903 174.037 20.9934 172.788 20.9934C172.276 20.9934 171.859 21.4099 171.859 21.8766C171.859 22.3834 172.276 22.8 172.788 22.8C174.082 22.7548 177.329 22.7096 181.459 22.5691C183.637 22.524 186.327 22.4788 189.343 22.3834C187.346 30.8242 185.078 40.9361 183.035 50.8121C181.55 58.0485 180.345 64.3114 179.557 68.9031C179.141 71.3119 178.86 73.2138 178.724 74.5136C178.539 76.275 178.443 77.2937 179.327 77.6199C179.462 77.6199 179.557 77.6651 179.698 77.6651C180.486 77.6651 180.902 76.551 181.274 75.5323C181.459 75.0706 181.229 74.5587 180.762 74.3731C180.672 74.3731 180.621 74.3279 180.531 74.3279C180.993 70.7097 182.388 62.5951 185.078 49.7934C187.07 40.1031 189.248 30.4077 191.2 22.3383C203.951 22.0623 220.507 21.8264 222.409 22.4788C222.735 22.7548 223.151 22.7548 223.523 22.524C223.894 22.2479 223.985 21.6909 223.708 21.2744Z" fill="currentColor"/>
<path d="M209.374 38.2913C208.957 38.0605 208.4 38.201 208.169 38.6626C207.055 40.5646 204.135 45.7134 202.464 45.5277C202.137 45.4825 201.214 45.0158 200.286 41.769C199.633 39.4957 198.755 37.3629 197.039 37.2726C195.784 37.1772 194.394 38.1508 192.261 42.1403C192.818 40.1481 193.421 38.1508 193.882 36.5299C194.068 35.9277 194.208 35.4158 194.349 34.909C194.49 34.4423 194.208 33.9304 193.747 33.7949C193.28 33.6544 192.773 33.9304 192.633 34.4423C192.492 34.909 192.352 35.461 192.166 36.018C190.962 40.1481 189.155 46.4059 188.688 50.2098C188.643 50.6263 188.924 51.0478 189.341 51.1382C189.431 51.1833 189.476 51.1833 189.572 51.1833C189.943 51.1833 190.269 50.9525 190.405 50.6263C194.766 39.7767 196.527 39.034 196.943 39.034C197.039 39.034 197.686 39.2197 198.569 42.2808C199.498 45.4825 200.702 47.1034 202.278 47.2891C204.642 47.5651 206.779 44.6445 209.7 39.5459C209.976 39.0792 209.79 38.5723 209.374 38.2913Z" fill="currentColor"/>
<path d="M222.957 38.2912C222.535 38.0152 221.983 38.1056 221.702 38.5221C218.225 43.3948 215.394 46.456 212.614 48.4483C211.224 49.4218 209.879 49.6075 208.996 48.9601C208.439 48.5436 206.723 46.6869 208.715 40.1932C213.216 36.4846 215.675 32.9568 215.023 31.105C214.792 30.548 214.235 30.1766 213.633 30.1766C211.776 30.2218 208.951 33.4235 207.094 39.4053C204.821 46.7772 206.678 49.467 207.977 50.3954C208.625 50.9073 209.367 51.1381 210.2 51.1381C211.269 51.1381 212.474 50.7216 213.633 49.8885C216.604 47.7507 219.524 44.5992 223.143 39.5458C223.419 39.1243 223.328 38.5723 222.957 38.2912ZM213.262 32.1237C213.076 32.8664 212.288 34.3519 210.11 36.575C211.315 33.8852 212.614 32.5854 213.262 32.1237Z" fill="currentColor"/>
<path d="M241.399 38.0155C241.033 37.6893 240.476 37.7345 240.149 38.1058C236.486 42.3262 230.735 49.0508 229.807 50.2552C229.531 50.5813 229.25 50.9527 228.974 51.3241C228.602 50.3957 228.136 49.5175 227.533 48.5891C225.31 45.1566 223.313 41.9097 223.408 39.6364C223.499 37.8298 224.427 36.2541 225.958 35.3257C227.212 34.583 228.602 34.4425 229.666 34.9543C230.088 35.14 230.64 34.9543 230.825 34.4876C231.061 34.0711 230.876 33.5141 230.409 33.3284C228.833 32.5857 226.791 32.7714 225.029 33.7951C222.992 35.0447 221.782 37.1323 221.647 39.5461C221.506 42.3714 223.544 45.7588 226.053 49.5626C226.841 50.767 227.348 51.9262 227.674 53.0403C224.056 57.9582 220.161 64.2612 222.154 66.2134C222.48 66.5345 222.896 66.675 223.313 66.675C224.056 66.675 224.889 66.3037 225.772 65.6061C228.276 63.5235 230.876 58.7913 229.621 53.4117C230.133 52.7593 230.64 52.0668 231.197 51.3692C232.125 50.21 237.876 43.4855 241.494 39.2651C241.82 38.8937 241.77 38.3367 241.399 38.0155ZM226.329 62.269C225.074 64.1257 223.825 64.8685 223.408 64.9136C223.223 64.2612 223.825 61.5714 228.136 55.4541C228.321 58.7913 226.931 61.3406 226.329 62.269Z" fill="currentColor"/>
<path d="M260.094 38.0155C259.728 37.6893 259.171 37.7345 258.845 38.1058C255.181 42.3262 249.43 49.0508 248.502 50.2552C248.226 50.5813 247.945 50.9527 247.669 51.3241C247.298 50.3957 246.831 49.5175 246.229 48.5891C244.006 45.1566 242.008 41.9097 242.104 39.6364C242.194 37.8298 243.122 36.2541 244.653 35.3257C245.907 34.583 247.298 34.4425 248.361 34.9543C248.783 35.14 249.335 34.9543 249.521 34.4876C249.757 34.0711 249.571 33.5141 249.104 33.3284C247.528 32.5857 245.486 32.7714 243.725 33.7951C241.687 35.0447 240.478 37.1323 240.342 39.5461C240.202 42.3714 242.239 45.7588 244.748 49.5626C245.536 50.767 246.043 51.9262 246.369 53.0403C242.751 57.9582 238.857 64.2612 240.849 66.2134C241.175 66.5345 241.592 66.675 242.008 66.675C242.751 66.675 243.584 66.3037 244.467 65.6061C246.971 63.5235 249.571 58.7913 248.316 53.4117C248.828 52.7593 249.335 52.0668 249.892 51.3692C250.82 50.21 256.571 43.4855 260.19 39.2651C260.516 38.8937 260.466 38.3367 260.094 38.0155ZM245.024 62.269C243.77 64.1257 242.52 64.8685 242.104 64.9136C241.918 64.2612 242.52 61.5714 246.831 55.4541C247.017 58.7913 245.626 61.3406 245.024 62.269Z" fill="currentColor"/>
</svg>
