<svg id="svg58589" width="303.95" height="40.491" version="1.1" viewBox="0 0 80.421 10.713" xmlns="http://www.w3.org/2000/svg">
   <g id="layer1" transform="translate(-40.788 -60.687)" fill="currentColor">
      <g id="text3156-3" transform="translate(51.013 1.0752)" stroke-width=".26458" aria-label="Victory Fitness">
         <path id="path58813"
               d="m-6.8958 68.801q-0.22578 0-0.48542-0.06773-0.24836-0.07902-0.36124-0.28222-0.25964-0.88053-0.54187-1.8062-0.28222-0.92569-0.56445-1.8175-0.31609-1.0499-0.67733-2.1788-0.36124-1.1402-0.67733-2.1788-0.06773-0.24836 0.07902-0.42898 0.14676-0.19191 0.41769-0.28222 0.16933-0.04516 0.29351-0.04516 0.38382 0 0.49671 0.38382l0.83538 2.6755q0.11289 0.4064 0.25964 0.89182 0.15804 0.48542 0.31609 0.99342 0.15804 0.508 0.31609 1.016 0.15804 0.49671 0.29351 0.92569 0.21449-0.7112 0.46284-1.5353 0.25964-0.83538 0.51929-1.6933 0.27093-0.85796 0.53058-1.6933 0.25964-0.84667 0.48542-1.5804 0.12418-0.38382 0.48542-0.38382 0.13547 0 0.31609 0.04516 0.62089 0.16933 0.48542 0.7112-0.6096 1.9756-1.2305 3.985-0.62089 2.0094-1.2305 3.9963-0.090311 0.22578-0.33867 0.29351-0.23707 0.05644-0.48542 0.05644z" />
         <path id="path58815"
               d="m-1.3642 68.271q0 0.54187-0.62089 0.54187-0.63218 0-0.63218-0.54187v-5.8251q0-0.54187 0.63218-0.54187 0.62089 0 0.62089 0.54187zm0.23707-7.7893q0 0.36124-0.24836 0.6096t-0.6096 0.24836-0.62089-0.24836q-0.24836-0.24836-0.24836-0.6096 0-0.37253 0.24836-0.62089 0.25964-0.24836 0.62089-0.24836t0.6096 0.24836 0.24836 0.62089z" />
         <path id="path58817"
               d="m5.6349 66.95q0 0.92569-0.6096 1.366-0.59831 0.42898-1.1966 0.42898h-1.8965q-0.59831 0-1.1628-0.42898-0.27093-0.22578-0.41769-0.56444-0.14676-0.34996-0.14676-0.80151v-3.2173q0-0.9144 0.56445-1.3547 0.28222-0.2032 0.57573-0.31609 0.3048-0.12418 0.58702-0.12418h1.8965q0.27093 0 0.59831 0.11289 0.32738 0.1016 0.6096 0.28222 0.27093 0.19191 0.42898 0.53058 0.16933 0.33867 0.16933 0.80151v0.56444q0 0.54187-0.62089 0.54187t-0.62089-0.54187v-0.48542q0-0.28222-0.18062-0.508-0.16933-0.23707-0.58702-0.23707h-1.4111q-0.41769 0-0.59831 0.23707-0.16933 0.22578-0.16933 0.508v3.1948q0 0.27093 0.16933 0.508 0.18062 0.23707 0.59831 0.23707h1.4111q0.41769 0 0.58702-0.23707 0.18062-0.23707 0.18062-0.508v-0.51929q0-0.53058 0.62089-0.53058t0.62089 0.53058z" />
         <path id="path58819"
               d="m8.5248 63.01v4.1092q0 0.29351 0.12418 0.45156 0.12418 0.15804 0.53058 0.15804h0.29351q0.44027 0 0.41769 0.51929 0 0.53058-0.41769 0.53058h-0.37253q-0.36124 0-0.67733-0.09031-0.31609-0.1016-0.6096-0.28222v0.01129q-0.55316-0.36125-0.55316-1.2869v-4.1204h-0.44027q-0.4064 0-0.42898-0.53058 0-0.53058 0.42898-0.53058h0.44027v-1.2079q0-0.54187 0.64347-0.54187 0.62089 0 0.62089 0.54187v1.2079h0.93698q0.44027 0 0.41769 0.53058 0 0.53058-0.41769 0.53058z" />
         <path id="path58821"
               d="m14.485 61.949q0.29351 0 0.59831 0.12418 0.31609 0.12418 0.6096 0.31609h-0.01129q0.29351 0.21449 0.45156 0.56444 0.15804 0.33867 0.15804 0.79022v3.206q0 0.92569-0.6096 1.366-0.59831 0.42898-1.1966 0.42898h-1.8062q-0.29351 0-0.59831-0.1016t-0.59831-0.32738q-0.6096-0.42898-0.6096-1.366v-3.206q0-0.45156 0.15804-0.79022 0.15804-0.34996 0.45156-0.56444h-0.01129q0.28222-0.19191 0.59831-0.31609t0.6096-0.12418zm-0.2032 5.7348q0.41769 0 0.58702-0.23707 0.18062-0.23707 0.18062-0.508v-3.1835q0-0.28222-0.18062-0.508-0.16933-0.23707-0.58702-0.23707h-1.3998q-0.41769 0-0.59831 0.23707-0.16933 0.22578-0.16933 0.508v3.1835q0 0.27093 0.16933 0.508 0.18062 0.23707 0.59831 0.23707z" />
         <path id="path58823"
               d="m18.933 68.271q0 0.54187-0.62089 0.54187-0.64347 0-0.64347-0.54187v-4.6736q0-0.92569 0.55316-1.2869t1.2756-0.36124h1.2869q0.41769 0 0.41769 0.53058 0.02258 0.53058-0.41769 0.53058h-1.1966q-0.4064 0-0.53058 0.15804-0.12418 0.15804-0.12418 0.44027z" />
         <path id="path58825"
               d="m22.523 70.325q-0.39511 0-0.41769-0.53058 0-0.53058 0.41769-0.53058h0.49671q0.39511 0 0.51929-0.23707l0.15804-0.41769 0.05644-0.18062-2.2013-5.7686v0.01129q-0.09031-0.27093 0.03387-0.46284 0.13547-0.19191 0.4064-0.28222 0.2032-0.05644 0.32738-0.05644 0.32738 0 0.4064 0.38382l0.89182 2.2239 0.75636 1.8514 1.2079-4.0527q0.1016-0.4064 0.47413-0.4064 0.09031 0 0.29351 0.05644 0.27093 0.07902 0.38382 0.25964 0.12418 0.18062 0.05644 0.42898-0.508 1.7272-1.0386 3.477-0.51929 1.7498-1.0273 3.4657-0.05645 0.12418-0.18062 0.24836-0.11289 0.13547-0.3048 0.24836-0.19191 0.12418-0.47413 0.19191-0.28222 0.07902-0.65476 0.07902z" />
         <path id="path58827"
               d="m32.581 68.271q0 0.54187-0.66604 0.54187-0.66605 0-0.66605-0.54187v-7.8119q0-0.25964 0.14676-0.46284 0.14676-0.21449 0.56444-0.21449h3.8382q0.4064 0 0.42898 0.56444 0.02258 0.57573-0.42898 0.57573h-3.2173zm2.89-4.1882q0 0.19191-0.07902 0.37253-0.06773 0.16933-0.2032 0.29351-0.12418 0.12418-0.29351 0.2032-0.16933 0.06773-0.37253 0.06773-0.38382 0-0.65476-0.27093-0.27093-0.27093-0.27093-0.66605 0-0.39511 0.27093-0.66604 0.27093-0.27093 0.65476-0.27093 0.2032 0 0.37253 0.07902 0.16933 0.06773 0.29351 0.2032 0.13547 0.12418 0.2032 0.29351 0.07902 0.16933 0.07902 0.36124z" />
         <path id="path58829"
               d="m38.632 68.271q0 0.54187-0.62089 0.54187-0.63218 0-0.63218-0.54187v-5.8251q0-0.54187 0.63218-0.54187 0.62089 0 0.62089 0.54187zm0.23707-7.7893q0 0.36124-0.24836 0.6096t-0.6096 0.24836q-0.36124 0-0.62089-0.24836-0.24836-0.24836-0.24836-0.6096 0-0.37253 0.24836-0.62089 0.25964-0.24836 0.62089-0.24836 0.36124 0 0.6096 0.24836t0.24836 0.62089z" />
         <path id="path58831"
               d="m41.68 63.01v4.1092q0 0.29351 0.12418 0.45156 0.12418 0.15804 0.53058 0.15804h0.29351q0.44027 0 0.41769 0.51929 0 0.53058-0.41769 0.53058h-0.37253q-0.36124 0-0.67733-0.09031-0.31609-0.1016-0.6096-0.28222v0.01129q-0.55316-0.36124-0.55316-1.2869v-4.1204h-0.44027q-0.4064 0-0.42898-0.53058 0-0.53058 0.42898-0.53058h0.44027v-1.2079q0-0.54187 0.64347-0.54187 0.62089 0 0.62089 0.54187v1.2079h0.93698q0.44027 0 0.41769 0.53058 0 0.53058-0.41769 0.53058z" />
         <path id="path58833"
               d="m45.27 68.271q0 0.54187-0.62089 0.54187-0.62089 0-0.62089-0.54187v-4.5381q0-0.46284 0.14676-0.80151t0.46284-0.55316q0.59831-0.42898 1.1966-0.42898h1.8175q0.57573 0 1.1966 0.42898 0.6096 0.42898 0.6096 1.3547v4.5381q0 0.54187-0.62089 0.54187-0.62089 0-0.62089-0.54187v-4.4365q0-0.29351-0.18062-0.56444l0.01129 0.01129q-0.14676-0.27094-0.59831-0.27094h-1.4111q-0.46284 0-0.6096 0.27093-0.15804 0.23707-0.15804 0.55316z" />
         <path id="path58835"
               d="m52.156 66.939q0 0.27093 0.16933 0.508 0.18062 0.23707 0.59831 0.23707h1.4111q0.41769 0 0.58702-0.2032 0.18062-0.21449 0.18062-0.48542v-0.12418q0-0.53058 0.62089-0.53058t0.62089 0.53058v0.13547q0 0.47413-0.15804 0.77893-0.14676 0.3048-0.45156 0.53058-0.59831 0.42898-1.1966 0.42898h-1.8965q-0.59831 0-1.1628-0.42898-0.27093-0.22578-0.41769-0.56444-0.14676-0.34996-0.14676-0.80151v-3.2173q0-0.9144 0.56444-1.3547 0.28222-0.2032 0.57573-0.31609 0.3048-0.12418 0.58702-0.12418h1.8965q0.27093 0 0.59831 0.11289 0.32738 0.1016 0.6096 0.28222 0.27093 0.19191 0.42898 0.53058 0.16933 0.33867 0.16933 0.80151v1.524q0 0.25964-0.15804 0.46284-0.14676 0.2032-0.55316 0.2032h-2.4384q-0.4064 0-0.42898-0.53058 0-0.53058 0.42898-0.53058h1.9191l-0.01129-1.0499q0-0.28222-0.18062-0.508-0.16933-0.23707-0.58702-0.23707h-1.4111q-0.41769 0-0.59831 0.23707-0.16933 0.22578-0.16933 0.508z" />
         <path id="path58837"
               d="m61.447 64.794q0.28222 0 0.59831 0.13547 0.32738 0.12418 0.6096 0.31609h-0.01129q0.29351 0.21449 0.45156 0.55316t0.15804 0.8128v0.33867q0 0.92569-0.6096 1.366-0.29351 0.22578-0.59831 0.32738-0.3048 0.1016-0.59831 0.1016h-1.9191q-0.29351 0-0.59831-0.1016-0.3048-0.1016-0.59831-0.32738-0.6096-0.42898-0.6096-1.366v-0.13547q0-0.48542 0.62089-0.47413 0.63218 0 0.63218 0.47413v0.12418q0 0.27093 0.16933 0.508 0.16933 0.23707 0.59831 0.23707h1.4901q0.42898 0 0.59831-0.23707 0.16933-0.23707 0.16933-0.508v-0.31609q0-0.14676-0.04516-0.28222-0.03387-0.13547-0.12418-0.23707-0.09031-0.11289-0.23707-0.18062-0.14676-0.06773-0.36124-0.06773h-1.6482q-0.57573 0-1.2079-0.4064-0.59831-0.38382-0.59831-1.3208v-0.38382q0-0.45156 0.15804-0.79022 0.15804-0.34996 0.45156-0.56444h-0.011284q0.28222-0.19191 0.59831-0.31609 0.31609-0.12418 0.6096-0.12418h1.8062q0.29351 0 0.59831 0.12418 0.31609 0.12418 0.6096 0.31609h-0.01129q0.29351 0.21449 0.45156 0.56444 0.15804 0.33867 0.15804 0.79022v0.1016q0 0.23707-0.15804 0.34996-0.15804 0.1016-0.46284 0.11289-0.62089 0.01129-0.62089-0.46284v-0.09031q0-0.28222-0.18062-0.508-0.16933-0.23707-0.58702-0.23707h-1.3998q-0.41769 0-0.59831 0.23707-0.16933 0.22578-0.16933 0.508v0.27093q0 0.29351 0.16933 0.53058 0.18062 0.23707 0.59831 0.23707z" />
         <path id="path58839"
               d="m68.39 64.794q0.28222 0 0.59831 0.13547 0.32738 0.12418 0.6096 0.31609h-0.01129q0.29351 0.21449 0.45156 0.55316 0.15804 0.33867 0.15804 0.8128v0.33867q0 0.92569-0.6096 1.366-0.29351 0.22578-0.59831 0.32738t-0.59831 0.1016h-1.9191q-0.29351 0-0.59831-0.1016-0.3048-0.1016-0.59831-0.32738-0.6096-0.42898-0.6096-1.366v-0.13547q0-0.48542 0.62089-0.47413 0.63218 0 0.63218 0.47413v0.12418q0 0.27093 0.16933 0.508 0.16933 0.23707 0.59831 0.23707h1.4901q0.42898 0 0.59831-0.23707 0.16933-0.23707 0.16933-0.508v-0.31609q0-0.14676-0.04515-0.28222-0.03387-0.13547-0.12418-0.23707-0.09031-0.11289-0.23707-0.18062-0.14676-0.06773-0.36124-0.06773h-1.6482q-0.57573 0-1.2079-0.4064-0.59831-0.38382-0.59831-1.3208v-0.38382q0-0.45156 0.15804-0.79022 0.15804-0.34996 0.45156-0.56444h-0.01129q0.28222-0.19191 0.59831-0.31609t0.6096-0.12418h1.8062q0.29351 0 0.59831 0.12418 0.31609 0.12418 0.6096 0.31609h-0.01129q0.29351 0.21449 0.45156 0.56444 0.15804 0.33867 0.15804 0.79022v0.1016q0 0.23707-0.15804 0.34996-0.15804 0.1016-0.46284 0.11289-0.62089 0.01129-0.62089-0.46284v-0.09031q0-0.28222-0.18062-0.508-0.16933-0.23707-0.58702-0.23707h-1.3998q-0.41769 0-0.59831 0.23707-0.16933 0.22578-0.16933 0.508v0.27093q0 0.29351 0.16933 0.53058 0.18062 0.23707 0.59831 0.23707z" />
      </g>
   </g>
</svg>